<svg width="800" height="600" viewBox="0 0 800 600" fill="none" xmlns="http://www.w3.org/2000/svg">
  <!-- Background -->
  <rect width="800" height="600" fill="#F5F5F5"/>
  
  <!-- Digital Farm Management Interface -->
  <rect x="100" y="100" width="300" height="200" rx="10" fill="#FFFFFF" stroke="#0D47A1" stroke-width="3"/>
  
  <!-- Screen Elements -->
  <rect x="120" y="120" width="260" height="40" rx="5" fill="#E3F2FD"/>
  <rect x="120" y="170" width="120" height="20" rx="5" fill="#90CAF9"/>
  <rect x="120" y="200" width="80" height="80" rx="5" fill="#4CAF50"/>
  <rect x="210" y="200" width="170" height="80" rx="5" fill="#E8F5E9"/>
  
  <!-- IoT Sensors -->
  <circle cx="500" cy="150" r="30" fill="#4CAF50"/>
  <path d="M500 120L500 80" stroke="#4CAF50" stroke-width="3"/>
  <path d="M520 150L560 150" stroke="#4CAF50" stroke-width="3"/>
  <path d="M500 180L500 220" stroke="#4CAF50" stroke-width="3"/>
  
  <!-- Data Flow Lines -->
  <path d="M400 200C450 200 450 150 500 150" stroke="#0D47A1" stroke-width="2" stroke-dasharray="5 5"/>
  
  <!-- Smart Farming Icons -->
  <circle cx="600" cy="400" r="50" fill="#FFFFFF" stroke="#0D47A1" stroke-width="3"/>
  <path d="M580 400L620 400M600 380L600 420" stroke="#0D47A1" stroke-width="3"/>
  
  <!-- Connected Devices -->
  <rect x="100" y="350" width="60" height="100" rx="5" fill="#FFFFFF" stroke="#0D47A1" stroke-width="2"/>
  <rect x="110" y="360" width="40" height="60" rx="3" fill="#E3F2FD"/>
  
  <!-- Network Lines -->
  <path d="M160 400C200 400 250 350 300 350" stroke="#0D47A1" stroke-width="2" stroke-dasharray="5 5"/>
  <path d="M300 350C350 350 400 400 450 400" stroke="#0D47A1" stroke-width="2" stroke-dasharray="5 5"/>
</svg>