<svg width="32" height="32" viewBox="0 0 32 32" fill="none" xmlns="http://www.w3.org/2000/svg">
  <!-- Circular background -->
  <circle cx="16" cy="16" r="16" fill="#E8F5E9"/>
  
  <!-- Simplified cow head -->
  <path d="M16 10C13 10 11 12 11 15C11 18 13 20 16 20C19 20 21 18 21 15C21 12 19 10 16 10Z" fill="#0D47A1"/>
  
  <!-- Simplified horns -->
  <path d="M11 13C9 12 8 13 7 14" stroke="#0D47A1" stroke-width="2" stroke-linecap="round"/>
  <path d="M21 13C23 12 24 13 25 14" stroke="#0D47A1" stroke-width="2" stroke-linecap="round"/>
  
  <!-- Simplified leaf and digital elements -->
  <path d="M14 22C12 21 11 22 11 24C11 25 12 26 14 26" stroke="#4CAF50" stroke-width="2" stroke-linecap="round"/>
  <circle cx="19" cy="14" r="1" fill="#4CAF50"/>
</svg>